<?xml version="1.0" encoding="utf-8"?>
<!-- Generator: Adobe Illustrator 15.0.2, SVG Export Plug-In . SVG Version: 6.00 Build 0)  -->
<!DOCTYPE svg PUBLIC "-//W3C//DTD SVG 1.0//EN" "http://www.w3.org/TR/2001/REC-SVG-20010904/DTD/svg10.dtd">
<svg version="1.0" id="Layer_1" xmlns="http://www.w3.org/2000/svg" xmlns:xlink="http://www.w3.org/1999/xlink" x="0px" y="0px"
	 width="687.876px" height="276px" viewBox="0 0 687.876 276" enable-background="new 0 0 687.876 276" xml:space="preserve">
<g>
	<path fill="#243E86" d="M682.417,210.488h-35.789l5.459-23.657h-71.578l-5.458,23.657h-34.576v-4.854l0,0l1.213-8.492l0,0
		l3.033-9.705l3.639-9.099l5.46-8.493l2.426-4.246l3.033-3.64l3.64-3.032l3.64-3.033l3.64-3.033l4.246-2.426l4.246-1.82l4.853-1.213
		l4.853-0.606l5.46-0.606l0,0l4.246,0.606l4.246,0.606l3.64,1.213l3.64,1.82l2.427,3.033l1.818,3.032l1.215,4.853v5.459h42.46l0,0
		l1.82-6.671v-3.641v-4.246v-4.246l-1.213-4.246l-1.213-4.246l-2.427-4.246l0,0l-4.246-4.853l-4.246-3.64l-5.459-3.033l-6.066-2.427
		l-7.278-1.819l-7.279-1.213l-7.886-0.607h-9.099l0,0l-13.953,0.607l-7.278,0.606l-8.492,1.82l-7.887,1.819l-8.491,3.033
		l-8.493,3.64l-7.885,4.853V5.459h141.942V210.488L682.417,210.488z M598.707,245.063L598.707,245.063l-12.132,1.821l-12.132,0.605
		l0,0l-7.278-0.605l-6.674-1.215l-6.064-2.426l-4.854-3.641l-2.426-1.818l-1.821-2.427l-1.818-2.427l-1.213-3.033l-1.215-3.033
		l-0.605-3.639l-0.607-7.279h66.119L598.707,245.063L598.707,245.063z M516.817,127.991v29.117l0,0l-6.673,10.312l-5.46,10.919
		l-4.245,10.312l-2.427,9.1l0,0l-1.819,6.672l-0.607,6.066h-21.23l18.197-84.923H432.5l-53.987,84.923h-3.638V5.459h141.942V127.991
		L516.817,127.991z M437.354,210.488h-21.231l32.15-50.954L437.354,210.488L437.354,210.488z M351.218,125.565h-35.183
		l-24.263,84.923h-38.216l0,0l7.279-3.033l6.065-3.639l5.46-4.248l4.852-4.853l3.641-5.458l3.033-6.066l2.426-6.673l1.819-6.673l0,0
		l1.819-10.918v-4.853l-0.605-4.246l-0.607-4.247l-1.213-3.032l-1.82-3.64l-2.426-3.033l0,0l-3.64-3.639l-4.853-3.033l-5.458-1.819
		l-6.066-1.214l-6.067-0.606h-6.672h-12.738l0,0h-27.904V5.459h141.337V125.565L351.218,125.565z M328.773,210.488l14.558-53.38
		l0.607,53.38H328.773L328.773,210.488z M225.653,189.864L225.653,189.864L225.653,189.864l-4.853,0.606l0,0h-4.853h-9.1
		l4.246-15.771l1.82-7.887l4.853-17.591l0,0h6.065l0,0h7.28l0,0h7.886l6.672,0.607l4.853,1.213l1.212,1.213l1.214,1.214l0,0
		l1.212,2.426l0.607,3.64l-0.607,4.246l-1.819,5.459l0,0l-1.212,4.246l-2.427,4.247l-1.82,3.64l-3.032,2.426l-3.033,2.427
		l-4.247,1.819l-5.458,1.214L225.653,189.864L225.653,189.864z M186.225,132.844l-2.427,7.278l-20.625,67.94l-0.605,2.426H95.841
		l-5.458-10.92l72.185-74.003h-46.102l-56.413,60.66l18.198-60.66H44.281V5.459h141.943V132.844L186.225,132.844z M535.014,0
		v137.696l0,0l-6.671,6.066l-6.066,6.066V0h-152.86v125.565h-12.739V0H204.421v125.565h-12.738V0H38.821v143.156L0,272.967h33.969
		l17.591-57.02h4.853l28.51,57.02h41.248l-27.903-57.02h63.085l-17.591,57.02h37.61l16.983-57.02h7.886l0,0h12.133h0.605h70.972
		l-16.377,57.02h37.608l15.771-57.02h16.985l0.606,57.02h31.542l36.396-57.02h23.657l-12.133,57.02h37.003l12.132-57.02h21.837l0,0
		v6.065v6.674l1.214,6.064l1.819,6.067l1.819,5.459l3.033,4.853l3.641,4.853l3.639,4.245l0,0l6.066,4.854l6.065,3.64l6.673,2.427
		l7.279,2.427l6.672,1.212l7.278,0.606L563.524,276l0,0l16.379-0.607l17.591-1.212l16.984-3.033l17.591-3.641l13.347-51.56h42.46V0
		H535.014L535.014,0z"/>
</g>
</svg>
