<?xml version="1.0" encoding="UTF-8" standalone="no"?>
<!-- Creator: CorelDRAW -->

<svg
   xmlns:dc="http://purl.org/dc/elements/1.1/"
   xmlns:cc="http://creativecommons.org/ns#"
   xmlns:rdf="http://www.w3.org/1999/02/22-rdf-syntax-ns#"
   xmlns:svg="http://www.w3.org/2000/svg"
   xmlns="http://www.w3.org/2000/svg"
   xmlns:sodipodi="http://sodipodi.sourceforge.net/DTD/sodipodi-0.dtd"
   xmlns:inkscape="http://www.inkscape.org/namespaces/inkscape"
   xml:space="preserve"
   width="1000"
   height="774.18799"
   viewBox="0 0 1280.9422 1222.3898"
   id="svg3312"
   sodipodi:version="0.32"
   inkscape:version="0.92.2 (5c3e80d, 2017-08-06)"
   sodipodi:docname="Nvidia.svg"
   version="1.0"
   style="clip-rule:evenodd;fill-rule:evenodd;image-rendering:optimizeQuality;shape-rendering:geometricPrecision;text-rendering:geometricPrecision"><metadata
     id="metadata3323"><rdf:RDF><cc:Work
         rdf:about=""><dc:format>image/svg+xml</dc:format><dc:type
           rdf:resource="http://purl.org/dc/dcmitype/StillImage" /><dc:title></dc:title></cc:Work></rdf:RDF></metadata><defs
     id="defs3321" /><sodipodi:namedview
     inkscape:window-height="705"
     inkscape:window-width="1366"
     inkscape:pageshadow="2"
     inkscape:pageopacity="0.0"
     guidetolerance="10.0"
     gridtolerance="10.0"
     objecttolerance="10.0"
     borderopacity="1.0"
     bordercolor="#666666"
     pagecolor="#ffffff"
     id="base"
     inkscape:zoom="0.5"
     inkscape:cx="658.49845"
     inkscape:cy="367.36332"
     inkscape:window-x="-8"
     inkscape:window-y="-8"
     inkscape:current-layer="svg3312"
     showgrid="false"
     inkscape:window-maximized="1" /><path
     style="fill-rule:evenodd;stroke-width:2.53867507"
     inkscape:connector-curvature="0"
     d="m 507.62351,926.83982 0.0305,295.54998 h 83.46656 V 926.8449 Z m -656.61816,-0.40111 v 295.95109 h 84.210392 V 997.66885 l 65.23887246,0.0228 c 21.60920254,0 37.00118954,5.37685 47.41483454,16.48865 13.203649,14.0694 18.590718,36.7499 18.590718,78.2548 v 129.9547 h 81.593013 v -163.511 c 0,-116.7029 -74.390792,-132.44014 -147.1644521,-132.44014 z m 791.01308,0.41126 v 295.53983 h 135.38501 c 72.13137,0 95.67251,-11.9977 121.13288,-38.8925 17.9992,-18.8826 29.62634,-60.3316 29.62634,-105.6292 0,-41.5403 -9.84245,-78.60242 -27.01405,-101.68152 -30.9236,-41.2687 -75.47481,-49.33661 -141.98302,-49.33661 z m 82.79889,64.35034 h 35.88671 c 52.06569,0 85.73867,23.38119 85.73867,84.04789 0,60.6794 -33.67298,84.0606 -85.73867,84.0606 h -35.88671 z m -337.5397,-64.35034 -69.66125,234.23083 -66.75192,-234.21559 -90.10266,-0.0152 95.32979,295.53979 h 120.30274 l 96.07616,-295.53979 z m 579.72677,295.53983 h 83.48181 V 926.86521 l -83.50212,-0.0152 z M 1200.9941,926.9566 1084.441,1222.2883 h 82.3038 l 18.4409,-52.2002 h 137.9339 l 17.4559,52.2002 h 89.3614 L 1312.4927,926.93121 Z m 54.1829,53.8783 50.5628,138.3578 h -102.7224 z"
     id="path42074" /><path
     style="fill:#7ab547;fill-rule:evenodd;stroke-width:2.53867507"
     inkscape:connector-curvature="0"
     d="m 397.26984,234.54566 v -71.00421 c 6.88997,-0.48742 13.85355,-0.85553 20.95169,-1.07893 194.19087,-6.10298 321.59428,166.85949 321.59428,166.85949 0,0 -137.60127,191.11908 -285.13637,191.11908 -21.25125,0 -40.26593,-3.42467 -57.4096,-9.17985 V 295.95621 c 75.59921,9.13161 90.79826,42.52788 136.26085,118.28703 l 101.08496,-85.22841 c 0,0 -73.78659,-96.77937 -198.17659,-96.77937 -13.53622,0 -26.47077,0.95454 -39.16922,2.3102 z m 0,-234.5456566381 V 106.05569 c 6.96867,-0.55089 13.94748,-0.99262 20.95169,-1.24649 270.05156,-9.098607 445.98936,221.47402 445.98936,221.47402 0,0 -202.08869,245.73613 -412.61594,245.73613 -19.29139,0 -37.35406,-1.77961 -54.32511,-4.7854 v 65.55621 c 14.51615,1.84562 29.54764,2.93217 45.23919,2.93217 195.92225,0 337.60825,-100.04665 474.80841,-218.47076 22.72875,18.21499 115.86256,62.52249 135.01186,81.94081 C 921.87182,608.39603 617.86801,696.4119 445.52244,696.4119 c -16.60801,0 -32.58136,-1.00024 -48.2526,-2.50822 v 92.1336 H 1141.9242 V 3.3619e-6 Z m 0,511.2612366381 v 55.97271 C 216.06175,534.92677 165.76806,346.56216 165.76806,346.56216 c 0,0 87.0004,-96.39603 231.50178,-112.0165 v 61.41055 c -0.1117,0 -0.18532,-0.0279 -0.28433,-0.0279 -75.82261,-9.10876 -135.07021,61.74312 -135.07021,61.74312 0,0 33.19318,119.26442 135.35454,153.58984 z M 75.426768,338.40032 c 0,0 107.396112,-158.47426 321.843072,-174.85887 v -57.48576 c -237.52098,19.06292 -443.206974,220.22753 -443.206974,220.22753 0,0 116.487107,336.78826 443.206974,367.62046 V 632.79016 C 157.51737,602.62562 75.426768,338.40032 75.426768,338.40032 Z"
     id="path42076" /></svg>