<?xml version="1.0" encoding="UTF-8" standalone="no"?>
<svg
   xmlns:dc="http://purl.org/dc/elements/1.1/"
   xmlns:cc="http://creativecommons.org/ns#"
   xmlns:rdf="http://www.w3.org/1999/02/22-rdf-syntax-ns#"
   xmlns:svg="http://www.w3.org/2000/svg"
   xmlns="http://www.w3.org/2000/svg"
   id="svg10744"
   version="1.1"
   viewBox="0 0 400 137.10041809082"
   height="137.10041809082"
   width="400">
  <defs
     id="defs10738" />
  <metadata
     id="metadata10741">
    <rdf:RDF>
      <cc:Work
         rdf:about="">
        <dc:format>image/svg+xml</dc:format>
        <dc:type
           rdf:resource="http://purl.org/dc/dcmitype/StillImage" />
        <dc:title></dc:title>
      </cc:Work>
    </rdf:RDF>
  </metadata>
  <g
     transform="translate(-616.987334775513,-471.686357104762)"
     id="layer1">
    <g
       transform="matrix(7.42297714404812,0,0,-7.42297714404812,747.140831338593,587.550622665567)"
       id="g10104">
      <path
         id="path10106"
         style="fill:#03234c;fill-opacity:1;fill-rule:nonzero;stroke:none"
         d="m 0,0 -0.051,12.751 c 0,1.282 0.998,2.319 2.278,2.319 h 0.25 c 1.281,0 2.32,-1.037 2.32,-2.319 L 4.848,0 c 0,-1.28 -1.037,-2.32 -2.321,-2.32 H 2.264 C 0.98,-2.32 0,-1.28 0,0" />
    </g>
    <g
       transform="matrix(7.42297714404812,0,0,-7.42297714404812,964.537562956312,486.8653606837)"
       id="g10108">
      <path
         id="path10110"
         style="fill:#03234c;fill-opacity:1;fill-rule:nonzero;stroke:none"
         d="m 0,0 5.154,-8.391 c 1.114,-1.812 1.373,-2.284 1.373,-3.62 0,-2.107 -1.91,-3.719 -3.605,-3.719 h -6.959 c -1.272,0 -2.297,0.878 -2.297,2.147 v 0.145 c 0,1.268 1.025,2.295 2.297,2.295 h 4.266000000000025 c 0.267,0 0.437000000000001,0.036 0.507,0.205 0.078,0.185 0.057,0.289 -0.07,0.496 L -2.373,-5.565 c -0.051,0.081 -0.107,0.193 -0.203,0.193 -0.088,0 -0.164,-0.112 -0.205,-0.199 l -4.647,-7.97 C -8.148,-14.806 -9,-15.73 -10.27,-15.73 h -8.929 c -1.69,0 -3.393,1.667 -3.393,3.394 V -0.806 c 0,1.267 1.026,2.296 2.291,2.296 h 0.293 c 1.268,0 2.297,-1.029 2.297,-2.296 l -0.004,-9.419 c 0,-0.348 0.252,-0.623 0.627,-0.623 h 4.44 c 0.775,0 1.244,0.279 1.652,0.957 L -5.029,0 c 0.57,0.941 1.482,1.444 2.558,1.444 C -1.43,1.444 -0.605,0.973 0,0" />
    </g>
    <g
       transform="matrix(7.42297714404812,0,0,-7.42297714404812,661.843400976354,559.32104058675)"
       id="g10112">
      <path
         id="path10114"
         style="fill:#03234c;fill-opacity:1;fill-rule:nonzero;stroke:none"
         d="m 0,0 c -0.346,0 -0.623,-0.279 -0.623,-0.624 v -3.209 c 0,-1.268 -1.027,-2.292 -2.293,-2.292 h -0.295 c -1.266,0 -2.293,1.024 -2.293,2.292 l 0.002,5.836 c 0,1.481 1.137,2.732 2.731,2.732 h 9.324 c 1.265,0 2.293,-1.028 2.293,-2.296 V 2.295 C 8.846,1.025 7.818,0 6.553,0 Z" />
    </g>
    <g
       transform="matrix(7.42297714404812,0,0,-7.42297714404812,638.216064726849,478.1359395623)"
       id="g10116">
      <path
         id="path10118"
         style="fill:#e51937;fill-opacity:1;fill-rule:nonzero;stroke:none"
         d="m 0,0 h 10.861 c 1.28,0 2.321,-0.999 2.321,-2.278 v -0.144 c 0,-1.285 -1.041,-2.323 -2.321,-2.323 H 0 c -1.281,0 -2.32,1.038 -2.32,2.323 v 0.159 C -2.32,-0.981 -1.281,0 0,0" />
    </g>
  </g>
</svg>
