<?xml version="1.0" encoding="UTF-8" standalone="no"?>
<!-- Created with Inkscape (http://www.inkscape.org/) -->

<svg
   xmlns:dc="http://purl.org/dc/elements/1.1/"
   xmlns:cc="http://creativecommons.org/ns#"
   xmlns:rdf="http://www.w3.org/1999/02/22-rdf-syntax-ns#"
   xmlns:svg="http://www.w3.org/2000/svg"
   xmlns="http://www.w3.org/2000/svg"
   xmlns:sodipodi="http://sodipodi.sourceforge.net/DTD/sodipodi-0.dtd"
   xmlns:inkscape="http://www.inkscape.org/namespaces/inkscape"
   id="svg2985"
   version="1.1"
   inkscape:version="0.48.2 r9819"
   width="800"
   height="800"
   sodipodi:docname="Prezi_logo_transparent_2012.svg">
  <metadata
     id="metadata2991">
    <rdf:RDF>
      <cc:Work
         rdf:about="">
        <dc:format>image/svg+xml</dc:format>
        <dc:type
           rdf:resource="http://purl.org/dc/dcmitype/StillImage" />
        <dc:title />
      </cc:Work>
    </rdf:RDF>
  </metadata>
  <defs
     id="defs2989" />
  <sodipodi:namedview
     pagecolor="#ffffff"
     bordercolor="#666666"
     borderopacity="1"
     objecttolerance="10"
     gridtolerance="10"
     guidetolerance="10"
     inkscape:pageopacity="0"
     inkscape:pageshadow="2"
     inkscape:window-width="1366"
     inkscape:window-height="706"
     id="namedview2987"
     showgrid="false"
     inkscape:zoom="0.417193"
     inkscape:cx="248.06306"
     inkscape:cy="86.380123"
     inkscape:window-x="-8"
     inkscape:window-y="-8"
     inkscape:window-maximized="1"
     inkscape:current-layer="svg2985"
     fit-margin-top="2"
     fit-margin-left="2"
     fit-margin-right="2"
     fit-margin-bottom="2" />
  <g
     id="g3216">
    <g
       transform="matrix(1.209863,0,0,1.209863,127.98294,49.400268)"
       id="g5003"
       style="fill:#1966cc;fill-opacity:1">
      <path
         inkscape:connector-curvature="0"
         style="fill:#1966cc;fill-opacity:1;stroke:none"
         d="m 142.88033,223.1875 c -0.59041,44.90221 37.69811,82.36319 82.49467,82.36319 44.79656,0 81.47523,-37.4571 81.47523,-82.36319 0,-44.90609 -36.66759,-81.28125 -81.47523,-81.28125 -59.31621,0 -82.06364,48.50066 -82.49467,81.28125 z M 225.375,150.71875 c 39.93111,0 71.26181,32.44001 71.26181,72.46875 0,40.02874 -31.3307,71.79954 -71.26181,71.79954 -39.93111,0 -72.28125,-31.7708 -72.28125,-71.79954 0,-40.02874 32.35014,-72.46875 72.28125,-72.46875 z"
         id="path3854"
         sodipodi:nodetypes="ssssssssss" />
      <path
         id="path3857"
         d="m 122.79177,223.1844 c 0,58.07807 48.56008,101.45158 102.57909,101.45158 54.01901,0 101.21438,-44.64235 101.21438,-101.45158 0,-56.80923 -47.60169,-101.94238 -101.21438,-101.94238 -53.61269,0 -102.57909,41.39443 -102.57909,101.94238 z m 102.57909,-92.73851 c 46.3055,0 91.48018,39.80136 91.48018,92.73851 0,53.2907 -40.96464,91.71738 -91.48018,91.71738 -52.81365,0 -91.97098,-40.548 -91.97098,-91.71738 0,-53.11392 41.45543,-92.73851 91.97098,-92.73851 z"
         style="fill:#1966cc;fill-opacity:1;stroke:none"
         inkscape:connector-curvature="0"
         sodipodi:nodetypes="szszssssss" />
      <path
         sodipodi:nodetypes="szszssssss"
         inkscape:connector-curvature="0"
         style="fill:#1966cc;fill-opacity:1;stroke:none"
         d="m 102.92429,223.23504 c 0,70.06258 57.31304,121.68584 122.47897,121.68584 65.16593,0 121.74992,-53.15392 121.74992,-121.68584 0,-68.53192 -56.67376,-122.23543 -121.74992,-122.23543 -65.07616,0 -122.47897,49.82704 -122.47897,122.23543 z M 225.40326,111.09802 c 58.95832,0 111.45636,48.27619 111.45636,112.13702 0,64.28733 -51.91777,111.94297 -112.85728,111.94297 -60.55978,0 -111.54844,-50.2147 -111.54844,-111.94297 0,-64.07408 52.00983,-112.13702 112.94936,-112.13702 z"
         id="path3859" />
    </g>
    <g
       transform="matrix(1.209863,0,0,1.209863,127.98294,49.400268)"
       id="g5008"
       style="fill:#318bff;fill-opacity:1">
      <path
         inkscape:connector-curvature="0"
         id="path3819"
         d="m 219.02633,164.15729 12.90469,0 0,117.73328 -12.90469,0 z"
         style="fill:#318bff;fill-opacity:1;stroke:none" />
      <path
         style="fill:#318bff;fill-opacity:1;stroke:none"
         d="m 192.08883,173.40729 c 5.18105,-4.11798 12.90469,-6.13336 12.90469,-6.13336 l 0,111.16949 c -7.31944,-1.74546 -12.8163,-5.9816 -12.8163,-5.9816 z"
         id="path3821"
         inkscape:connector-curvature="0"
         sodipodi:nodetypes="ccccc" />
      <path
         sodipodi:nodetypes="ccccc"
         inkscape:connector-curvature="0"
         id="path3834"
         d="m 259.02569,173.15729 c -5.18105,-4.11798 -12.90469,-6.13336 -12.90469,-6.13336 l 0,111.16949 c 7.31944,-1.74546 12.8163,-5.9816 12.8163,-5.9816 z"
         style="fill:#318bff;fill-opacity:1;stroke:none" />
      <path
         style="fill:#318bff;fill-opacity:1;stroke:none"
         d="m 177.875,186.875 0,71.625 c 0,0 -11.875,-11.625 -11.875,-35.625 0,-24 11.875,-36 11.875,-36 z"
         id="path3836"
         inkscape:connector-curvature="0"
         sodipodi:nodetypes="ccsc" />
      <path
         sodipodi:nodetypes="ccsc"
         inkscape:connector-curvature="0"
         id="path3838"
         d="m 272.26517,186.375 0,71.625 c 0,0 11.875,-11.625 11.875,-35.625 0,-24 -11.875,-36 -11.875,-36 z"
         style="fill:#318bff;fill-opacity:1;stroke:none" />
    </g>
    <g
       id="g3386"
       transform="matrix(1.2082628,-0.06220601,0.06220601,1.2082628,114.47815,63.765565)"
       style="stroke:none;stroke-opacity:1;fill:#318bff;fill-opacity:1">
      <path
         inkscape:transform-center-y="-170.68128"
         inkscape:transform-center-x="-76.646795"
         style="fill:#318bff;fill-opacity:1;stroke:none"
         d="M 291.94698,105.71644 310.66362,73.936322 295.22205,65.495737 279.89652,99.316006 z"
         id="path4983"
         inkscape:connector-curvature="0"
         sodipodi:nodetypes="ccccc" />
      <path
         sodipodi:nodetypes="ccccc"
         inkscape:connector-curvature="0"
         id="path3039"
         d="m 265.9217,94.293583 11.67157,-34.986612 -16.86315,-5.031865 -7.92934,36.274069 z"
         style="fill:#318bff;fill-opacity:1;stroke:none"
         inkscape:transform-center-x="-39.570879"
         inkscape:transform-center-y="-182.47866" />
      <path
         inkscape:transform-center-y="-186.24389"
         inkscape:transform-center-x="-0.58421047"
         style="fill:#318bff;fill-opacity:1;stroke:none"
         d="m 238.65154,88.611039 4.26635,-36.634503 -17.53594,-1.475194 -0.33987,37.129059 z"
         id="path3041"
         inkscape:connector-curvature="0"
         sodipodi:nodetypes="ccccc" />
      <path
         sodipodi:nodetypes="ccccc"
         inkscape:connector-curvature="0"
         id="path3043"
         d="m 210.11664,88.700576 -3.50454,-36.715212 -17.45576,2.231931 7.44748,36.376058 z"
         style="fill:#318bff;fill-opacity:1;stroke:none"
         inkscape:transform-center-x="39.859278"
         inkscape:transform-center-y="-182.25816" />
      <path
         sodipodi:nodetypes="ccccc"
         inkscape:connector-curvature="0"
         id="path3045"
         d="m 182.30175,94.744724 -11.10128,-35.171723 -16.60369,5.831211 14.88624,34.015911 z"
         style="fill:#318bff;fill-opacity:1;stroke:none"
         inkscape:transform-center-x="77.005702"
         inkscape:transform-center-y="-170.39675" />
      <path
         inkscape:transform-center-y="-151.0419"
         inkscape:transform-center-x="110.70331"
         style="fill:#318bff;fill-opacity:1;stroke:none"
         d="M 156.40124,106.44773 138.20369,74.367551 123.1827,83.535724 144.84062,113.69558 z"
         id="path3047"
         inkscape:connector-curvature="0"
         sodipodi:nodetypes="ccccc" />
      <path
         sodipodi:nodetypes="ccccc"
         inkscape:connector-curvature="0"
         id="path3049"
         d="M 133.93469,122.91611 109.55846,95.237818 96.731058,107.28535 124.10156,132.37595 z"
         style="fill:#318bff;fill-opacity:1;stroke:none"
         inkscape:transform-center-x="139.00542"
         inkscape:transform-center-y="-125.61212" />
      <path
         inkscape:transform-center-y="-94.059486"
         inkscape:transform-center-x="161.89263"
         style="fill:#318bff;fill-opacity:1;stroke:none"
         d="M 114.91245,144.18587 85.277788,122.22966 75.259513,136.69753 107.27977,155.49609 z"
         id="path3051"
         inkscape:connector-curvature="0"
         sodipodi:nodetypes="ccccc" />
      <path
         sodipodi:nodetypes="ccccc"
         inkscape:connector-curvature="0"
         id="path3053"
         d="m 101.01991,168.40078 -33.50702,-15.41323 -6.838839,16.21468 35.194465,11.83351 z"
         style="fill:#318bff;fill-opacity:1;stroke:none"
         inkscape:transform-center-x="177.33293"
         inkscape:transform-center-y="-59.140913" />
      <path
         inkscape:transform-center-y="-21.016554"
         inkscape:transform-center-x="185.30865"
         style="fill:#318bff;fill-opacity:1;stroke:none"
         d="m 92.282331,195.44614 -35.986028,-8.08049 -3.304037,17.28493 36.889177,4.22742 z"
         id="path3055"
         inkscape:connector-curvature="0"
         sodipodi:nodetypes="ccccc" />
      <path
         sodipodi:nodetypes="ccccc"
         inkscape:connector-curvature="0"
         id="path3057"
         d="m 89.381399,223.15061 -36.878037,-0.54675 0.302379,17.59528 36.973737,-3.40959 z"
         style="fill:#318bff;fill-opacity:1;stroke:none"
         inkscape:transform-center-x="185.27175"
         inkscape:transform-center-y="19.648468" />
      <path
         inkscape:transform-center-y="58.019379"
         inkscape:transform-center-x="177.54339"
         style="fill:#318bff;fill-opacity:1;stroke:none"
         d="m 92.350728,251.53074 -36.173957,7.19259 3.982477,17.14132 35.438544,-11.08116 z"
         id="path3059"
         inkscape:connector-curvature="0"
         sodipodi:nodetypes="ccccc" />
      <path
         inkscape:transform-center-y="93.729523"
         inkscape:transform-center-x="161.98088"
         style="fill:#318bff;fill-opacity:1;stroke:none"
         d="m 101.17158,278.59349 -33.871553,14.59474 7.477369,15.9303 32.339594,-18.24371 z"
         id="path3061"
         inkscape:connector-curvature="0"
         sodipodi:nodetypes="ccccc" />
      <path
         sodipodi:nodetypes="ccccc"
         inkscape:connector-curvature="0"
         id="path3063"
         d="m 115.42916,303.18044 -30.079521,21.34271 10.637534,14.01886 27.819717,-24.59157 z"
         style="fill:#318bff;fill-opacity:1;stroke:none"
         inkscape:transform-center-x="139.30133"
         inkscape:transform-center-y="125.25579" />
      <path
         inkscape:transform-center-y="150.80729"
         inkscape:transform-center-x="111.11416"
         style="fill:#318bff;fill-opacity:1;stroke:none"
         d="m 134.08115,323.86997 -25.07645,27.04552 13.28077,11.54583 22.19974,-29.7633 z"
         id="path3065"
         inkscape:connector-curvature="0"
         sodipodi:nodetypes="ccccc" />
      <path
         sodipodi:nodetypes="ccccc"
         inkscape:connector-curvature="0"
         id="path3067"
         d="m 157.16234,340.64813 -18.85281,31.69952 15.4052,8.50676 15.4705,-33.75421 z"
         style="fill:#318bff;fill-opacity:1;stroke:none"
         inkscape:transform-center-x="77.373572"
         inkscape:transform-center-y="170.35992" />
      <path
         inkscape:transform-center-y="182.38886"
         inkscape:transform-center-x="40.006302"
         style="fill:#318bff;fill-opacity:1;stroke:none"
         d="m 183.38265,352.26128 -11.75534,34.95855 16.85105,5.07225 8.01621,-36.25498 z"
         id="path3069"
         inkscape:connector-curvature="0"
         sodipodi:nodetypes="ccccc" />
      <path
         sodipodi:nodetypes="ccccc"
         inkscape:connector-curvature="0"
         id="path3071"
         d="m 211.20504,358.06745 -4.20021,36.64215 17.53858,1.44353 0.27282,-37.1296 z"
         style="fill:#318bff;fill-opacity:1;stroke:none"
         inkscape:transform-center-x="0.20776088"
         inkscape:transform-center-y="186.24205" />
      <path
         inkscape:transform-center-y="182.37853"
         inkscape:transform-center-x="-39.270245"
         style="fill:#318bff;fill-opacity:1;stroke:none"
         d="m 239.06089,357.99998 3.3857,36.72637 17.46289,-2.17543 -7.3297,-36.39997 z"
         id="path3073"
         inkscape:connector-curvature="0"
         sodipodi:nodetypes="ccccc" />
      <path
         sodipodi:nodetypes="ccccc"
         inkscape:connector-curvature="0"
         id="path3075"
         d="m 266.96309,352.02367 11.00595,35.20167 16.61942,-5.7862 -14.79404,-34.05612 z"
         style="fill:#318bff;fill-opacity:1;stroke:none"
         inkscape:transform-center-x="-76.546011"
         inkscape:transform-center-y="170.59865" />
      <path
         sodipodi:nodetypes="ccccc"
         inkscape:connector-curvature="0"
         id="path3077"
         d="m 292.93192,340.36952 18.12065,32.12367 15.04291,-9.13217 -21.58562,-30.21163 z"
         style="fill:#318bff;fill-opacity:1;stroke:none"
         inkscape:transform-center-x="-110.34421"
         inkscape:transform-center-y="151.30178" />
      <path
         inkscape:transform-center-y="125.36406"
         inkscape:transform-center-x="-139.22899"
         style="fill:#318bff;fill-opacity:1;stroke:none"
         d="m 315.85978,323.57337 24.42616,27.63424 12.80563,-12.07068 -27.41575,-25.04113 z"
         id="path3079"
         inkscape:connector-curvature="0"
         sodipodi:nodetypes="ccccc" />
      <path
         sodipodi:nodetypes="ccccc"
         inkscape:connector-curvature="0"
         id="path3081"
         d="m 334.44417,302.82311 29.56344,22.05202 10.06505,-14.43537 -31.95924,-18.90211 z"
         style="fill:#318bff;fill-opacity:1;stroke:none"
         inkscape:transform-center-x="-161.59377"
         inkscape:transform-center-y="94.57863" />
      <path
         inkscape:transform-center-y="58.902433"
         inkscape:transform-center-x="-177.40972"
         style="fill:#318bff;fill-opacity:1;stroke:none"
         d="m 348.66754,278.08561 33.52781,15.36792 6.81693,-16.2239 -35.21043,-11.78593 z"
         id="path3083"
         inkscape:connector-curvature="0"
         sodipodi:nodetypes="ccccc" />
      <path
         sodipodi:nodetypes="ccccc"
         inkscape:connector-curvature="0"
         id="path3089"
         d="m 357.40994,250.82961 36.00894,7.97785 3.25473,-17.29427 -36.90108,-4.12223 z"
         style="fill:#318bff;fill-opacity:1;stroke:none"
         inkscape:transform-center-x="-185.36108"
         inkscape:transform-center-y="20.489335" />
      <path
         inkscape:transform-center-y="-21.1097"
         inkscape:transform-center-x="-185.12979"
         style="fill:#318bff;fill-opacity:1;stroke:none"
         d="m 360.2291,222.43417 36.8812,0.25566 -0.44124,-17.59234 -36.94568,3.70132 z"
         id="path3091"
         inkscape:connector-curvature="0"
         sodipodi:nodetypes="ccccc" />
      <path
         inkscape:transform-center-y="-59.321377"
         inkscape:transform-center-x="-177.12835"
         style="fill:#318bff;fill-opacity:1;stroke:none"
         d="m 357.05127,194.14811 36.11999,-7.45884 -4.10863,-17.11154 -35.35595,11.3419 z"
         id="path3093"
         inkscape:connector-curvature="0"
         sodipodi:nodetypes="ccccc" />
      <path
         sodipodi:nodetypes="ccccc"
         inkscape:connector-curvature="0"
         id="path3095"
         d="m 348.04892,167.18972 33.7678,-14.83323 -7.58953,-15.87718 -32.21013,18.4713 z"
         style="fill:#318bff;fill-opacity:1;stroke:none"
         inkscape:transform-center-x="-161.33109"
         inkscape:transform-center-y="-94.862158" />
      <path
         inkscape:transform-center-y="-125.64826"
         inkscape:transform-center-x="-138.94905"
         style="fill:#318bff;fill-opacity:1;stroke:none"
         d="m 333.95606,143.16173 30.01854,-21.42838 -10.67745,-13.98846 -27.7495,24.67079 z"
         id="path3097"
         inkscape:connector-curvature="0"
         sodipodi:nodetypes="ccccc" />
      <path
         sodipodi:nodetypes="ccccc"
         inkscape:connector-curvature="0"
         id="path3099"
         d="M 314.73577,122.07077 339.59794,94.828169 326.22645,83.387508 304.26234,113.32512 z"
         style="fill:#318bff;fill-opacity:1;stroke:none"
         inkscape:transform-center-x="-109.93261"
         inkscape:transform-center-y="-151.66526" />
    </g>
  </g>
  <g
     style="font-size:45.49009705000000300px;font-style:normal;font-weight:normal;line-height:125%;letter-spacing:0px;word-spacing:0px;fill:#1966cc;fill-opacity:1;stroke:none;font-family:Sans"
     id="text3418">
    <g
       id="g3271"
       style="fill:#1966cc;fill-opacity:1">
      <path
         id="path3261"
         style="font-size:163.76434326000000000px;font-variant:normal;font-weight:bold;font-stretch:normal;font-family:Triplex;-inkscape-font-specification:Triplex Bold;fill:#1966cc;fill-opacity:1"
         d="m 252.29565,587.65073 0,98.25961 19.32108,0 0,-29.15153 5.89727,0 c 5.02098,3e-5 9.87873,-0.84625 14.57327,-2.53883 4.69445,-1.69252 8.8975,-4.09391 12.60918,-7.20417 3.71155,-3.11019 6.60521,-6.79432 8.68099,-11.0524 2.07563,-4.25797 3.11348,-8.84418 3.11356,-13.75864 -8e-5,-4.911 -1.03793,-9.49554 -3.11356,-13.75365 -2.07578,-4.25795 -4.96944,-7.94291 -8.68099,-11.05489 -3.71168,-3.1118 -7.91473,-5.51402 -12.60918,-7.20667 -4.69454,-1.69245 -9.55229,-2.53873 -14.57327,-2.53883 z m 25.21835,19.32608 c 5.13093,7e-5 9.63384,1.39193 13.50876,4.17557 3.87483,2.78378 5.81226,6.46791 5.81232,11.05239 -6e-5,4.58794 -1.93749,8.27373 -5.81232,11.05739 -3.87492,2.78377 -8.37783,4.17562 -13.50876,4.17557 l -5.89727,0 0,-30.46092 z" />
      <path
         inkscape:connector-curvature="0"
         id="path3263"
         style="font-size:163.76434326px;font-variant:normal;font-weight:bold;font-stretch:normal;fill:#1966cc;fill-opacity:1;font-family:Triplex;-inkscape-font-specification:Triplex Bold"
         d="m 373.63604,627.61227 -3.60333,-19.49099 c -2.62218,7e-5 -5.27012,0.54649 -7.94383,1.63924 -2.67381,1.0929 -5.15766,2.40313 -7.45156,3.93068 -2.29398,1.5277 -4.09564,2.8371 -5.40501,3.92819 -1.30942,1.09123 -2.23732,1.85504 -2.78371,2.29144 -0.10998,-0.2165 -0.4923,-0.78874 -1.14697,-1.71671 -0.65472,-0.92783 -1.52765,-2.04731 -2.61879,-3.35845 -1.09118,-1.31098 -2.1282,-2.51209 -3.11106,-3.60333 -0.9829,-1.09109 -1.8575,-1.90987 -2.62379,-2.45637 l -15.71774,9.33569 c 4.25803,3.27522 7.39657,6.90521 9.41565,10.88997 2.01905,3.98488 3.02859,8.65272 3.0286,14.00353 l 0,42.90518 18.67138,0 0,-44.3795 c 0.43643,-0.54637 1.25522,-1.47427 2.45636,-2.78371 1.20108,-1.30935 2.78368,-2.83781 4.74781,-4.58538 1.96405,-1.74748 4.20218,-3.27594 6.7144,-4.58539 2.51212,-1.30933 4.96931,-1.96403 7.37159,-1.96409 z" />
      <path
         inkscape:connector-curvature="0"
         id="path3265"
         style="font-size:163.76434326px;font-variant:normal;font-weight:bold;font-stretch:normal;fill:#1966cc;fill-opacity:1;font-family:Triplex;-inkscape-font-specification:Triplex Bold"
         d="m 401.76767,658.56297 c 0.97953,3e-5 1.90743,3e-5 2.78372,0 19.65087,3e-5 41.47788,-10.62335 40.31305,-27.02251 -0.66994,-9.43175 -3.52226,-12.58294 -8.46349,-16.82759 -5.24097,-4.0947 -13.91496,-6.35728 -19.93729,-6.40167 -4.9143,-0.0362 -9.95095,1.62371 -14.15398,3.75265 -4.20308,2.12909 -7.90796,4.58005 -10.96487,8.40155 -3.05693,3.82163 -5.6289,7.93656 -7.26646,12.79426 -1.63759,4.85781 -2.45637,9.85216 -2.45637,14.98308 0,5.131 0.81878,10.12618 2.45637,14.98558 1.63756,4.85944 3.95732,9.17244 6.95928,12.93902 3.00193,3.7666 6.60443,6.74189 10.80751,8.92588 4.20303,2.18399 8.81672,3.27598 13.8411,3.27598 3.92815,0 7.58479,-0.65553 10.96994,-1.96659 3.38505,-1.31106 6.22373,-2.83952 8.51606,-4.58538 2.29221,-1.74585 4.03891,-3.27431 5.24008,-4.58538 1.20105,-1.31105 2.01983,-2.23979 2.45637,-2.78621 l -10.48016,-10.48016 c -0.87299,1.09285 -2.70131,2.43056 -5.48497,4.01314 -2.78376,1.58262 -6.52286,2.37392 -11.21732,2.37391 -2.40226,10e-6 -4.44964,-0.46394 -6.14216,-1.39186 -1.69258,-0.92789 -3.08444,-2.07402 -4.17557,-3.43841 -1.09119,-1.36435 -1.855,-2.56546 -2.29144,-3.60334 -0.43649,-1.03783 -0.87296,-2.15647 -1.3094,-3.35595 z m 13.69385,-34.04771 c 3.27511,6e-5 5.74493,0.0289 8.90755,1.95904 1.96405,1.25615 3.83642,3.31319 3.70597,5.5905 -0.30662,5.35285 -8.7849,8.85005 -15.03678,10.04512 -4.33965,0.82954 -5.94254,1.156 -12.92928,1.15596 0.10992,-0.76294 0.20583,-1.16675 0.58735,-2.85934 0.38146,-1.69251 1.31585,-4.08021 2.35373,-6.26425 1.03783,-2.18393 2.56629,-4.1222 4.58539,-5.81481 2.01903,-1.69249 4.8774,-3.81216 7.82607,-3.81222 z"
         sodipodi:nodetypes="ccscsccsssssssccccssccccccssccscc" />
      <path
         id="path3267"
         style="font-size:163.76434326000000000px;font-variant:normal;font-weight:bold;font-stretch:normal;font-family:Triplex;-inkscape-font-specification:Triplex Bold;fill:#1966cc;fill-opacity:1"
         d="m 455.28689,610.58014 0,18.34153 28.65676,0 -30.29601,56.98867 59.60747,0 0,-18.34153 -30.29601,0 30.29601,-56.98867 z" />
      <path
         id="path3269"
         style="font-size:163.76434326000000000px;font-variant:normal;font-weight:bold;font-stretch:normal;font-family:Triplex;-inkscape-font-specification:Triplex Bold;fill:#1966cc;fill-opacity:1"
         d="m 538.50345,575.69626 c -3.16856,1.1e-4 -5.84398,1.0921 -8.02629,3.27598 -2.18234,2.1841 -3.2735,4.85869 -3.27349,8.0238 -10e-6,3.1653 1.09115,5.83989 3.27349,8.02379 2.18231,2.18408 4.85773,3.27607 8.02629,3.27599 3.16518,8e-5 5.83977,-1.09191 8.02379,-3.27599 2.18396,-2.1839 3.27596,-4.85849 3.27599,-8.02379 -3e-5,-3.16511 -1.09203,-5.8397 -3.27599,-8.0238 -2.18402,-2.18388 -4.85861,-3.27587 -8.02379,-3.27598 z m 9.49561,34.88388 -18.99622,0 0,75.3302 18.99622,0 z" />
    </g>
  </g>
</svg>
