<svg version="1.1" id="trd-la-logo" xmlns="http://www.w3.org/2000/svg" x="0" y="0" viewBox="0 0 573.7 133.3" xml:space="preserve"><style>.st0{fill:#231f20}</style><path class="st0" d="M570.5 94.5V81.4h-23.4V23.3h-15.3v71.2h38.7zm-63.1-25.4H497l5.5-26 4.9 26zm20.4 25.4l-16.6-71.2h-17.1l-16.7 71.2h14.3l3-14.1h14.8l3 14.1h15.3zm-52.2 0V81.1h-24.4V63.3H468V51.7h-16.8V36.1h24.4V23.3h-39.7v71.2h39.7zm-66.4-26.7c0 7-3.3 11.1-10.5 11.1h-9V22.5h9c7.2 0 10.5 4.1 10.5 11.1v34.2zm18.8 1.4V33.1c0-14.6-9.7-26.3-27.9-26.3h-29.2v87.7h29.2c18.2 0 27.9-10.5 27.9-25.3"/><path d="M363.6 94.5V81.4h-23.4V23.3h-15.3v71.2h38.7zm-63-25.4h-10.5l5.5-26 5 26zm20.3 25.4l-16.6-71.2h-17.1l-16.7 71.2h14.3l3-14.1h14.8l3 14.1h15.3zm-52.2 0V81.1h-24.4V63.3h16.8V51.7h-16.8V36.1h24.4V23.3H229v71.2h39.7zm-67.6-56.6c0 5.3-2.6 7.8-7.5 7.8h-9.9V21.6h10.7c4.9 0 6.7 2.8 6.7 7.1v9.2zM223.4 95v-5.5c-2.4-2.1-3.7-4.9-3.7-9V66.2c0-6.1-3.8-12.6-11.7-14.5 7.9-2.1 11.3-7.5 11.3-14.6v-9.5c0-12.6-8.6-20.8-22.8-20.8h-31.6v87.7h18.8V58.7h10.1c5.4 0 7.8 4 7.8 8.6v14.4c0 8.2 2.9 13.4 10.5 13.4h11.3V95z" fill="#f88d2b"/><path class="st0" d="M92.8 23.3v29.5H75V23.3H59.7v71.2H75V66h17.8v28.6h15.3V23.3H92.8zm25.6 0v71.2H158V81.1h-24.4V63.3h16.8V51.7h-16.8V36.1H158V23.3h-39.6zM4.3 6.8v16.1h19v71.6h18.8V22.9h18.8V6.8H4.3z"/><path d="M85.7 118.3v3.4H74.8v-17.1h4v13.7h6.9zm2.8.9c-1.2-1.8-1.8-4-1.8-6.1 0-4.5 2.3-8.8 7.3-8.8 2.3 0 4.1.8 5.4 2.6 1.2 1.7 1.8 4.1 1.8 6.2 0 1.9-.5 4.3-1.6 5.9-1.3 1.9-3.3 2.9-5.7 2.9-2.2 0-4.1-.8-5.4-2.7zm2.9-9.7c-.4 1-.5 2.5-.5 3.6 0 2.1.3 5.6 3.1 5.6 1.4 0 2.1-.7 2.6-1.9.4-1 .5-2.5.5-3.6 0-1.2-.1-2.7-.6-3.9-.5-1.1-1.2-1.7-2.5-1.7-1.4-.1-2.1.6-2.6 1.9zm21.2-.1c-.5-1.4-1.4-2-2.9-2-1.1 0-2.4.3-2.4 1.6 0 1.2 1.5 1.5 2.5 1.7 1.4.3 3.3.6 4.5 1.4 1.4.9 2.2 2.3 2.2 4 0 1.7-.8 3.3-2.1 4.3-1.4 1.1-3.2 1.4-5 1.4-3.2 0-6.1-1.4-6.9-4.7l3.7-.8c.5 1.8 1.8 2.4 3.6 2.4 1.1 0 2.7-.4 2.7-1.8s-1.9-1.7-3-1.9c-3-.6-6-1.5-6-5.3 0-1.6.6-3 1.8-4 1.2-1 2.7-1.4 4.3-1.4 3 0 5.4 1 6.5 4l-3.5 1.1zm27.9 12.3h-4.3l-1-3.5h-5.5l-1.1 3.5H125l5.5-17.1h4.6l5.4 17.1zm-6.3-6.7l-1.8-6-1.8 6h3.6zm21.4 6.7h-3.4l-6.6-11.5h-.1v11.5h-3.1v-17.1h4.3l5.7 10.1v-10.1h3.1v17.1zm9.6-6v-3.2h7v9.2h-1.8l-.6-2c-1.3 1.5-2.7 2.2-4.7 2.2-5 0-7.1-4.2-7.1-8.7 0-4.6 2.3-9 7.4-9 3.7 0 6.2 2.2 6.7 5.9l-3.8.5c-.2-1.7-1.1-3.2-3-3.2-2.8 0-3.2 3.7-3.2 5.8 0 2.2.6 5.4 3.4 5.4 1.7 0 2.9-1.2 2.8-3h-3.1zm14.2-7.9v3.5h6.5v3.2h-6.5v3.8h8.2v3.3h-12.2v-17.1h12.2v3.3h-8.2zm21.3 10.5v3.4h-10.9v-17.1h4v13.7h6.9zm5.7-10.5v3.5h6.5v3.2h-6.5v3.8h8.2v3.3h-12.2v-17.1h12.2v3.3h-8.2zm19.2 1.6c-.5-1.4-1.4-2-2.9-2-1.1 0-2.4.3-2.4 1.6 0 1.2 1.5 1.5 2.5 1.7 1.4.3 3.3.6 4.5 1.4 1.4.9 2.2 2.3 2.2 4 0 1.7-.8 3.3-2.1 4.3-1.4 1.1-3.2 1.4-5 1.4-3.2 0-6.1-1.4-6.9-4.7l3.7-.8c.5 1.8 1.8 2.4 3.6 2.4 1.1 0 2.7-.4 2.7-1.8s-1.9-1.7-3-1.9c-3-.6-6-1.5-6-5.3 0-1.6.6-3 1.8-4 1.2-1 2.7-1.4 4.3-1.4 3 0 5.4 1 6.5 4l-3.5 1.1zm17.9 12.3h-4v-17.1h7.2c1.5 0 3.1 0 4.4.9 1.4.9 2.2 2.6 2.2 4.3 0 1.9-1.1 3.7-3 4.4l3.2 7.6H249l-2.6-6.8h-2.9v6.7zm0-9.8h2.2c.8 0 1.7.1 2.4-.3.6-.4 1-1.2 1-2 0-.7-.4-1.4-1-1.7-.7-.4-1.8-.3-2.6-.3h-2.1v4.3zm16.4-4.1v3.5h6.5v3.2h-6.5v3.8h8.2v3.3h-12.2v-17.1h12.2v3.3h-8.2zm24.6 13.9h-4.3l-1-3.5h-5.5l-1.1 3.5H269l5.5-17.1h4.6l5.4 17.1zm-6.3-6.7l-1.8-6-1.8 6h3.6zm19 3.3v3.4h-10.9v-17.1h4v13.7h6.9zm13.2-10.5v3.5h6.5v3.2h-6.5v3.8h8.2v3.3h-12.2v-17.1h12.2v3.3h-8.2zm19.2 1.6c-.5-1.4-1.4-2-2.9-2-1.1 0-2.4.3-2.4 1.6 0 1.2 1.5 1.5 2.5 1.7 1.4.3 3.3.6 4.5 1.4 1.4.9 2.2 2.3 2.2 4 0 1.7-.8 3.3-2.1 4.3-1.4 1.1-3.2 1.4-5 1.4-3.2 0-6.1-1.4-6.9-4.7l3.7-.8c.5 1.8 1.8 2.4 3.6 2.4 1.1 0 2.7-.4 2.7-1.8s-1.9-1.7-3-1.9c-3-.6-6-1.5-6-5.3 0-1.6.6-3 1.8-4 1.2-1 2.7-1.4 4.3-1.4 3 0 5.4 1 6.5 4l-3.5 1.1zm17.7-1.5H343v13.7h-4v-13.7h-4.3v-3.4h12.6v3.4zm14.6 13.8h-4.3l-1-3.5H351l-1.1 3.5h-3.5l5.5-17.1h4.6l5.4 17.1zm-6.3-6.7l-1.8-6-1.8 6h3.6zm18-7.1h-4.3v13.7h-4v-13.7H361v-3.4h12.6v3.4zm6-.1v3.5h6.5v3.2h-6.5v3.8h8.2v3.3h-12.2v-17.1h12.2v3.3h-8.2zm31.2 13.9h-3.4l-6.6-11.5h-.1v11.5h-3.1v-17.1h4.3l5.7 10.1v-10.1h3.1v17.1zm7.3-13.9v3.5h6.5v3.2h-6.5v3.8h8.2v3.3h-12.2v-17.1h12.2v3.3h-8.2zm26.9 13.9h-4l-2.8-11.3-2.7 11.3h-3.9l-4.4-17.1h4.1l2.6 11.5 2.8-11.5h3.7l2.9 11.5.2-.8 2.5-10.8h3.3l-4.3 17.2zm14.8-12.3c-.5-1.4-1.4-2-2.9-2-1.1 0-2.4.3-2.4 1.6 0 1.2 1.5 1.5 2.5 1.7 1.4.3 3.3.6 4.5 1.4 1.4.9 2.2 2.3 2.2 4 0 1.7-.8 3.3-2.1 4.3-1.4 1.1-3.2 1.4-5 1.4-3.2 0-6.1-1.4-6.9-4.7l3.7-.8c.5 1.8 1.8 2.4 3.6 2.4 1.1 0 2.7-.4 2.7-1.8s-1.9-1.7-3-1.9c-3-.6-6-1.5-6-5.3 0-1.6.6-3 1.8-4 1.2-1 2.7-1.4 4.3-1.4 3 0 5.4 1 6.5 4l-3.5 1.1z"/></svg>